<svg data-v-423bf9ae="" xmlns="http://www.w3.org/2000/svg" viewBox="0 0 556 90" class="iconLeft"><!----><!----><!----><g data-v-423bf9ae="" id="d654c198-fcfa-4095-9bce-a3bb3443a7f8" fill="#FFFFFF" transform="matrix(5.976095640236052,0,0,5.976095640236052,107.54979006643319,10.816731871377833)"><path d="M9.31 3.68L9.86 9.07L8.72 9.51L8.86 10.50L12.82 10.50L12.96 9.51L11.80 9.07L11.13 2.16L12.31 1.69L12.14 0.70L9.25 0.70L6.48 8.22L6.48 6.82L4.21 0.70L1.40 0.70L1.25 1.69L2.41 2.16L1.60 9.06L0.41 9.51L0.57 10.50L3.68 10.50L3.82 9.51L2.69 9.06L3.32 4.03L5.77 10.74L6.82 10.50ZM17.29 3.81C15.16 3.81 13.79 5.14 13.79 7.22C13.79 9.31 15.04 10.64 17.29 10.64C19.56 10.64 20.78 9.37 20.78 7.22C20.78 5.08 19.40 3.81 17.29 3.81ZM17.29 4.69C18.33 4.69 19.00 5.61 19.00 7.18C19.00 8.74 18.35 9.76 17.29 9.76C16.20 9.76 15.60 8.72 15.60 7.18C15.60 5.64 16.25 4.69 17.29 4.69ZM28.41 5.12L29.33 4.82L29.16 3.96L26.70 3.96L26.53 4.82L27.37 5.11L25.63 9.09L25.63 7.81L24.43 5.12L25.23 4.82L25.06 3.96L21.78 3.96L21.62 4.82L22.53 5.12L24.93 10.65L26.22 10.50ZM32.76 9.34L32.76 3.96L31.91 3.81L30.20 3.96L30.35 4.82L31.00 4.82L31.00 9.34L30.10 9.65L30.27 10.50L33.49 10.50L33.66 9.65ZM31.77 0.74C31.28 0.74 30.86 1.15 30.86 1.65C30.86 2.14 31.28 2.56 31.77 2.56C32.27 2.56 32.68 2.14 32.68 1.65C32.68 1.15 32.27 0.74 31.77 0.74ZM36.74 6.38C36.86 5.38 37.45 4.69 38.36 4.69C39.09 4.69 39.65 5.15 39.65 5.98C39.65 6.10 39.63 6.24 39.61 6.38ZM38.67 9.63C37.46 9.63 36.72 8.65 36.69 7.25L41.10 7.25C41.27 6.96 41.41 6.45 41.41 6.08C41.41 4.70 40.04 3.81 38.36 3.81C36.36 3.81 34.78 5.08 34.78 7.22C34.78 9.30 35.94 10.65 38.60 10.65C39.52 10.65 40.40 10.43 41.30 9.70L40.82 8.99C40.11 9.46 39.38 9.63 38.67 9.63ZM50.64 2.16L51.88 1.69L51.73 0.70L48.57 0.70L48.40 1.69L49.50 2.16L47.11 8.46L47.11 6.82L45.29 2.16L46.37 1.69L46.21 0.70L42.14 0.70L41.97 1.69L43.22 2.16L46.49 10.74L47.57 10.50ZM54.89 9.34L54.89 3.96L54.04 3.81L52.33 3.96L52.49 4.82L53.13 4.82L53.13 9.34L52.23 9.65L52.40 10.50L55.62 10.50L55.79 9.65ZM53.90 0.74C53.41 0.74 52.99 1.15 52.99 1.65C52.99 2.14 53.41 2.56 53.90 2.56C54.40 2.56 54.81 2.14 54.81 1.65C54.81 1.15 54.40 0.74 53.90 0.74ZM59.33 10.64C61.03 10.64 62.12 9.84 62.12 8.61C62.12 7.53 61.33 7.08 60.37 6.62C59.67 6.29 58.55 5.96 58.55 5.42C58.55 5.00 59.01 4.69 59.57 4.69C59.91 4.69 60.28 4.75 60.62 4.83L60.91 5.91L61.87 5.74L61.87 4.40C61.26 4.03 60.48 3.81 59.71 3.81C58.03 3.81 56.94 4.44 56.94 5.63C56.94 6.85 58.20 7.43 59.12 7.87C59.75 8.16 60.51 8.55 60.51 9.00C60.51 9.52 59.91 9.76 59.22 9.76C59.04 9.76 58.55 9.70 58.32 9.62L57.85 8.23L56.91 8.41L56.91 10.07C57.71 10.46 58.72 10.64 59.33 10.64ZM65.52 2.48L64.47 2.24L63.87 3.72L62.82 4.05L62.96 4.82L63.76 4.82L63.76 8.75C63.76 9.81 64.50 10.64 65.90 10.64C66.78 10.64 67.37 10.26 67.91 9.70L67.31 8.96C66.93 9.37 66.47 9.63 66.12 9.63C65.87 9.63 65.52 9.34 65.52 8.86L65.52 4.82L67.20 4.82L67.37 3.96L65.52 3.96ZM68.87 5.74L69.80 5.91L70.11 4.84C70.38 4.77 70.81 4.69 71.15 4.69C71.76 4.69 72.34 5.08 72.34 5.88L72.34 6.37C70.57 6.37 68.35 6.80 68.35 8.71C68.35 9.98 69.45 10.65 70.71 10.65C71.53 10.65 72.10 10.47 72.52 10.18L72.94 10.50L74.72 10.50L74.89 9.65L74.10 9.34L74.10 6.44C74.10 4.75 73.02 3.81 71.22 3.81C70.52 3.81 69.68 3.99 68.87 4.40ZM72.34 9.07C72.10 9.42 71.61 9.63 71.23 9.63C70.84 9.63 70.27 9.38 70.27 8.58C70.27 7.78 71.04 7.24 72.34 7.24Z"></path></g><!----><g data-v-423bf9ae="" id="b9b3012e-6dd8-4418-b5c1-9e52b01df516" transform="matrix(1.6071428571428572,0,0,1.6071428571428572,0,0)" stroke="none" fill="#d31900"><g><path d="M35.273 33.294A2.968 2.968 0 0034 33a2.94 2.94 0 00-2.953 3.468 9.01 9.01 0 004.226-3.174zM32.012 38.23a2.983 2.983 0 004.685-3.52 11.016 11.016 0 01-4.685 3.52zM21 25a2.971 2.971 0 00-.61-1.793 9.017 9.017 0 00-1.382 4.606A2.995 2.995 0 0021 25zM22 33c-.44.002-.876.103-1.273.294a9.01 9.01 0 004.226 3.174A2.94 2.94 0 0022 33zM19.303 34.71c-.197.402-.3.843-.303 1.29a2.986 2.986 0 004.988 2.23 11.016 11.016 0 01-4.685-3.52zM35 25c.004 1.264.8 2.39 1.992 2.813a9.017 9.017 0 00-1.383-4.606A2.971 2.971 0 0035 25zM18 22a2.992 2.992 0 00-.992 5.818c.036-2.028.63-4.007 1.718-5.719A2.966 2.966 0 0018 22zM25.36 19.395a2.973 2.973 0 005.28 0 9.124 9.124 0 00-5.28 0z"></path><path d="M28 0C12.536 0 0 12.536 0 28s12.536 28 28 28 28-12.536 28-28C55.983 12.543 43.457.017 28 0zm19 27a.955.955 0 01-.04.2c.01.268.04.53.04.8a19.004 19.004 0 01-10.566 17H39a1 1 0 010 2H17a1 1 0 010-2h2.566A18.98 18.98 0 1141 14.182V13c0-.315.148-.611.4-.8l4-3a1 1 0 011.6.8v17z"></path><path d="M43 16.381c.77.993 1.44 2.06 2 3.185V12l-2 1.5v2.881zM30.94 17.41a2.999 2.999 0 00-5.88 0 11.153 11.153 0 015.88 0zM37.274 22.1a11.026 11.026 0 011.718 5.718 2.987 2.987 0 00-1.718-5.719z"></path><path d="M28 11c-9.389 0-17 7.611-17 17s7.611 17 17 17 17-7.611 17-17c-.01-9.385-7.615-16.99-17-17zm0 2a5.006 5.006 0 015 5c-.005.27-.032.537-.081.802l-.002.024a4.982 4.982 0 01-9.834 0l-.002-.024A4.953 4.953 0 0123 18a5.006 5.006 0 015-5zM13 25a4.988 4.988 0 017.857-4.093l.015.008c.004.004.006.01.011.014a4.98 4.98 0 01-2.691 9.052c-.019.002-.034.013-.052.015a.955.955 0 01-.091.004l-.017-.003c-.011 0-.021.003-.032.003a5.006 5.006 0 01-5-5zm13.488 13.163a.997.997 0 01-.067.123 4.982 4.982 0 11-7.672-6.053.93.93 0 01.101-.09l.012-.003A4.95 4.95 0 0122 31a5.006 5.006 0 015 5 4.94 4.94 0 01-.512 2.163zM28 29a1 1 0 01-.38-.08 1.151 1.151 0 01-.33-.21A1.034 1.034 0 0127 28a1 1 0 01.08-.38.985.985 0 011.84 0A.99.99 0 0128 29zm6 12a4.987 4.987 0 01-4.42-2.714.997.997 0 01-.068-.123A4.94 4.94 0 0129 36a5.006 5.006 0 015-5 4.95 4.95 0 013.138 1.14l.012.004a.93.93 0 01.101.089A4.978 4.978 0 0134 41zm9-16a5.006 5.006 0 01-5 5c-.01 0-.021-.003-.032-.003l-.017.003a.962.962 0 01-.09-.004c-.02-.002-.034-.013-.053-.015a4.98 4.98 0 01-2.691-9.052c.005-.004.007-.01.011-.014.005-.004.01-.004.015-.008A4.988 4.988 0 0143 25z"></path></g></g><!----></svg>